<svg 
 xmlns="http://www.w3.org/2000/svg"
 xmlns:xlink="http://www.w3.org/1999/xlink"
 width="45px" height="63px">
<defs>
<linearGradient id="PSgrad_0" x1="0%" x2="0%" y1="100%" y2="0%">
  <stop offset="0%" stop-color="rgb(206,219,236)" stop-opacity="1" />
  <stop offset="100%" stop-color="rgb(255,255,255)" stop-opacity="1" />
</linearGradient>

</defs>
<path fill-rule="evenodd"  fill="rgb(255, 255, 255)"
 d="M-0.011,3.032 C4.081,1.088 8.659,0.001 13.491,0.001 C30.892,0.001 44.997,14.104 44.997,31.500 C44.997,48.897 30.892,62.999 13.491,62.999 C8.659,62.999 4.081,61.912 -0.011,59.968 C10.633,54.913 17.992,44.066 17.992,31.500 C17.992,18.935 10.633,8.088 -0.011,3.032 L-0.011,3.032 Z"/>
<path fill="url(#PSgrad_0)"
 d="M-0.011,3.032 C4.081,1.088 8.659,0.001 13.491,0.001 C30.892,0.001 44.997,14.104 44.997,31.500 C44.997,48.897 30.892,62.999 13.491,62.999 C8.659,62.999 4.081,61.912 -0.011,59.968 C10.633,54.913 17.992,44.066 17.992,31.500 C17.992,18.935 10.633,8.088 -0.011,3.032 L-0.011,3.032 Z"/>
</svg>