<svg 
 xmlns="http://www.w3.org/2000/svg"
 xmlns:xlink="http://www.w3.org/1999/xlink"
 width="84px" height="73px">
<defs>
<linearGradient id="PSgrad_0" x1="0%" x2="0%" y1="100%" y2="0%">
  <stop offset="0%" stop-color="rgb(0,0,0)" stop-opacity="0.3" />
  <stop offset="100%" stop-color="rgb(0,0,0)" stop-opacity="0" />
</linearGradient>
<filter filterUnits="userSpaceOnUse" id="Filter_0" x="38px" y="11px" width="38px" height="38px"  >
    <feOffset in="SourceAlpha" dx="0" dy="2" />
    <feGaussianBlur result="blurOut" stdDeviation="2" />
    <feFlood flood-color="rgb(0, 0, 0)" result="floodOut" />
    <feComposite operator="atop" in="floodOut" in2="blurOut" />
    <feComponentTransfer><feFuncA type="linear" slope="0.1"/></feComponentTransfer>
    <feMerge>
    <feMergeNode/>
    <feMergeNode in="SourceGraphic"/>
  </feMerge>
</filter>
<filter filterUnits="userSpaceOnUse" id="Filter_1" x="0px" y="18px" width="73px" height="55px"  >
    <feOffset in="SourceAlpha" dx="0" dy="5" />
    <feGaussianBlur result="blurOut" stdDeviation="3.162" />
    <feFlood flood-color="rgb(0, 0, 0)" result="floodOut" />
    <feComposite operator="atop" in="floodOut" in2="blurOut" />
    <feComponentTransfer><feFuncA type="linear" slope="0.15"/></feComponentTransfer>
    <feMerge>
    <feMergeNode/>
    <feMergeNode in="SourceGraphic"/>
  </feMerge>
</filter>

</defs>
<path fill-rule="evenodd"  fill="rgb(252, 192, 46)"
 d="M56.498,48.321 L48.001,55.004 L44.861,44.344 L34.252,44.497 L37.669,33.932 L29.000,27.497 L37.669,21.062 L34.252,10.497 L44.861,10.650 L48.001,-0.010 L56.498,6.673 L64.996,-0.010 L68.136,10.650 L78.745,10.497 L75.328,21.062 L83.996,27.497 L75.328,33.932 L78.745,44.497 L68.136,44.344 L64.996,55.004 L56.498,48.321 L56.498,48.321 Z"/>
<path fill="url(#PSgrad_0)"
 d="M56.498,48.321 L48.001,55.004 L44.861,44.344 L34.252,44.497 L37.669,33.932 L29.000,27.497 L37.669,21.062 L34.252,10.497 L44.861,10.650 L48.001,-0.010 L56.498,6.673 L64.996,-0.010 L68.136,10.650 L78.745,10.497 L75.328,21.062 L83.996,27.497 L75.328,33.932 L78.745,44.497 L68.136,44.344 L64.996,55.004 L56.498,48.321 L56.498,48.321 Z"/>
<g filter="url(#Filter_0)">
<path fill-rule="evenodd"  fill="rgb(254, 230, 172)"
 d="M56.514,42.999 C65.074,42.999 72.014,36.059 72.014,27.497 C72.014,18.935 65.074,11.995 56.514,11.995 C47.954,11.995 41.015,18.935 41.015,27.497 C41.015,36.059 47.954,42.999 56.514,42.999 L56.514,42.999 Z"/>
</g>
<g filter="url(#Filter_1)">
<path fill-rule="evenodd"  fill="rgb(255, 255, 255)"
 d="M22.804,56.000 L51.444,56.000 C56.705,56.000 60.991,51.612 60.991,46.397 C60.991,42.008 58.089,38.341 54.007,37.146 C53.899,33.235 50.637,30.113 46.620,30.113 C45.453,30.113 44.352,30.395 43.370,30.867 C41.633,26.827 37.555,23.996 32.801,23.996 C27.617,23.996 23.239,27.371 21.821,31.999 C15.694,32.725 10.998,37.764 10.998,43.964 C10.998,50.460 16.087,56.000 22.804,56.000 "/>
</g>
</svg>