<svg 
 xmlns="http://www.w3.org/2000/svg"
 xmlns:xlink="http://www.w3.org/1999/xlink"
 width="103px" height="94px">
<defs>
<linearGradient id="PSgrad_0" x1="0%" x2="0%" y1="100%" y2="0%">
  <stop offset="0%" stop-color="rgb(0,0,0)" stop-opacity="0.1" />
  <stop offset="100%" stop-color="rgb(0,0,0)" stop-opacity="0" />
</linearGradient>
<filter filterUnits="userSpaceOnUse" id="Filter_0" x="0px" y="2px" width="92px" height="68px"  >
    <feOffset in="SourceAlpha" dx="0" dy="5" />
    <feGaussianBlur result="blurOut" stdDeviation="3.162" />
    <feFlood flood-color="rgb(0, 0, 0)" result="floodOut" />
    <feComposite operator="atop" in="floodOut" in2="blurOut" />
    <feComponentTransfer><feFuncA type="linear" slope="0.15"/></feComponentTransfer>
    <feMerge>
    <feMergeNode/>
    <feMergeNode in="SourceGraphic"/>
  </feMerge>
</filter>

</defs>
<path fill-rule="evenodd"  fill="rgb(182, 214, 250)"
 d="M59.310,37.458 L94.128,37.458 C99.063,36.922 102.993,32.755 102.993,27.649 C102.993,23.025 99.771,19.016 95.496,18.146 C94.326,8.509 86.292,0.975 76.547,0.975 C69.693,0.975 63.686,4.631 60.315,10.174 C60.232,10.172 60.149,10.149 60.065,10.149 C52.839,10.149 46.981,16.416 46.981,23.803 C46.981,30.932 52.435,36.922 59.310,37.458 "/>
<path fill="url(#PSgrad_0)"
 d="M59.310,37.458 L94.128,37.458 C99.063,36.922 102.993,32.755 102.993,27.649 C102.993,23.025 99.771,19.016 95.496,18.146 C94.326,8.509 86.292,0.975 76.547,0.975 C69.693,0.975 63.686,4.631 60.315,10.174 C60.232,10.172 60.149,10.149 60.065,10.149 C52.839,10.149 46.981,16.416 46.981,23.803 C46.981,30.932 52.435,36.922 59.310,37.458 "/>
<g filter="url(#Filter_0)">
<path fill-rule="evenodd"  fill="rgb(255, 255, 255)"
 d="M27.289,53.001 L66.812,53.001 C74.074,53.001 79.988,46.829 79.988,39.496 C79.988,33.324 75.983,28.167 70.350,26.487 C70.201,20.987 65.700,16.597 60.156,16.597 C58.545,16.597 57.026,16.992 55.671,17.656 C53.274,11.976 47.646,7.995 41.086,7.995 C33.932,7.995 27.890,12.741 25.934,19.249 C17.478,20.269 10.997,27.356 10.997,36.075 C10.997,45.209 18.020,53.001 27.289,53.001 "/>
</g>
<path fill-rule="evenodd"  fill="rgb(255, 255, 255)"
 d="M25.500,76.000 C27.985,76.000 30.000,78.015 30.000,80.500 C30.000,82.985 27.985,85.000 25.500,85.000 C23.015,85.000 21.000,82.985 21.000,80.500 C21.000,78.015 23.015,76.000 25.500,76.000 Z"/>
<path fill-rule="evenodd"  fill="rgb(255, 255, 255)"
 d="M85.500,55.000 C87.985,55.000 90.000,57.015 90.000,59.500 C90.000,61.985 87.985,64.000 85.500,64.000 C83.015,64.000 81.000,61.985 81.000,59.500 C81.000,57.015 83.015,55.000 85.500,55.000 Z"/>
<path fill-rule="evenodd"  fill="rgb(255, 255, 255)"
 d="M50.500,62.000 C51.881,62.000 53.000,63.119 53.000,64.500 C53.000,65.881 51.881,67.000 50.500,67.000 C49.119,67.000 48.000,65.881 48.000,64.500 C48.000,63.119 49.119,62.000 50.500,62.000 Z"/>
<path fill-rule="evenodd"  fill="rgb(255, 255, 255)"
 d="M90.500,89.000 C91.881,89.000 93.000,90.119 93.000,91.500 C93.000,92.881 91.881,94.000 90.500,94.000 C89.119,94.000 88.000,92.881 88.000,91.500 C88.000,90.119 89.119,89.000 90.500,89.000 Z"/>
</svg>